<mxfile host="65bd71144e">
    <diagram id="6hhBz4K5Bwa4blwoHBgN" name="Page-1">
        <mxGraphModel dx="1551" dy="969" grid="0" gridSize="10" guides="1" tooltips="1" connect="1" arrows="1" fold="1" page="0" pageScale="1" pageWidth="827" pageHeight="1169" background="#ffffff" math="0" shadow="0">
            <root>
                <mxCell id="0"/>
                <mxCell id="1" parent="0"/>
                <mxCell id="9" style="edgeStyle=none;html=1;exitX=0.5;exitY=1;exitDx=0;exitDy=0;strokeColor=#000000;strokeWidth=2;dashed=1;dashPattern=1 1;startArrow=none;" edge="1" parent="1" source="14">
                    <mxGeometry relative="1" as="geometry">
                        <mxPoint x="121" y="1155" as="targetPoint"/>
                    </mxGeometry>
                </mxCell>
                <mxCell id="2" value="&lt;font style=&quot;font-size: 20px;&quot; color=&quot;#000000&quot;&gt;Login Page&lt;/font&gt;" style="rounded=0;whiteSpace=wrap;html=1;fillColor=none;strokeColor=#000000;strokeWidth=2;" vertex="1" parent="1">
                    <mxGeometry x="48" y="116" width="145" height="48" as="geometry"/>
                </mxCell>
                <mxCell id="10" style="edgeStyle=none;html=1;exitX=0.5;exitY=1;exitDx=0;exitDy=0;dashed=1;dashPattern=1 1;strokeColor=#000000;strokeWidth=2;startArrow=none;" edge="1" parent="1" source="46">
                    <mxGeometry relative="1" as="geometry">
                        <mxPoint x="293.66666666666674" y="1153.1065622965498" as="targetPoint"/>
                    </mxGeometry>
                </mxCell>
                <mxCell id="3" value="&lt;span style=&quot;color: rgb(0, 0, 0); font-size: 20px;&quot;&gt;Forgot Password&lt;/span&gt;" style="rounded=0;whiteSpace=wrap;html=1;fillColor=none;strokeColor=#000000;strokeWidth=2;" vertex="1" parent="1">
                    <mxGeometry x="222" y="118" width="145" height="48" as="geometry"/>
                </mxCell>
                <mxCell id="11" style="edgeStyle=none;html=1;exitX=0.5;exitY=1;exitDx=0;exitDy=0;dashed=1;dashPattern=1 1;strokeColor=#000000;strokeWidth=2;startArrow=none;" edge="1" parent="1" source="20">
                    <mxGeometry relative="1" as="geometry">
                        <mxPoint x="467" y="1137.6744333902998" as="targetPoint"/>
                    </mxGeometry>
                </mxCell>
                <mxCell id="4" value="&lt;span style=&quot;color: rgb(0, 0, 0); font-size: 20px;&quot;&gt;Verification&lt;/span&gt;" style="rounded=0;whiteSpace=wrap;html=1;fillColor=none;strokeColor=#000000;strokeWidth=2;" vertex="1" parent="1">
                    <mxGeometry x="396" y="116" width="145" height="48" as="geometry"/>
                </mxCell>
                <mxCell id="12" style="edgeStyle=none;html=1;exitX=0.5;exitY=1;exitDx=0;exitDy=0;dashed=1;dashPattern=1 1;strokeColor=#000000;strokeWidth=2;startArrow=none;" edge="1" parent="1" source="21">
                    <mxGeometry relative="1" as="geometry">
                        <mxPoint x="649.1199035644531" y="1139.2179107666018" as="targetPoint"/>
                    </mxGeometry>
                </mxCell>
                <mxCell id="5" value="&lt;span style=&quot;color: rgb(0, 0, 0); font-size: 20px;&quot;&gt;Database&lt;/span&gt;" style="rounded=0;whiteSpace=wrap;html=1;fillColor=none;strokeColor=#000000;strokeWidth=2;" vertex="1" parent="1">
                    <mxGeometry x="571" y="116" width="145" height="48" as="geometry"/>
                </mxCell>
                <mxCell id="13" style="edgeStyle=none;html=1;exitX=0.5;exitY=1;exitDx=0;exitDy=0;dashed=1;dashPattern=1 1;strokeColor=#000000;strokeWidth=2;startArrow=none;" edge="1" parent="1" source="22">
                    <mxGeometry relative="1" as="geometry">
                        <mxPoint x="831.2185974121094" y="1136.131362915039" as="targetPoint"/>
                    </mxGeometry>
                </mxCell>
                <mxCell id="6" value="&lt;span style=&quot;color: rgb(0, 0, 0); font-size: 20px;&quot;&gt;Authentication Page&lt;/span&gt;" style="rounded=0;whiteSpace=wrap;html=1;fillColor=none;strokeColor=#000000;strokeWidth=2;" vertex="1" parent="1">
                    <mxGeometry x="750" y="116" width="145" height="48" as="geometry"/>
                </mxCell>
                <mxCell id="7" value="" style="rounded=0;whiteSpace=wrap;html=1;strokeColor=#000000;strokeWidth=2;fillColor=default;" vertex="1" parent="1">
                    <mxGeometry x="-64" y="195" width="41" height="959" as="geometry"/>
                </mxCell>
                <mxCell id="8" value="&lt;b&gt;&lt;font color=&quot;#000000&quot; style=&quot;font-size: 21px;&quot;&gt;Admin&lt;/font&gt;&lt;/b&gt;" style="shape=umlActor;verticalLabelPosition=bottom;verticalAlign=top;html=1;outlineConnect=0;strokeColor=#000000;strokeWidth=2;fillColor=default;" vertex="1" parent="1">
                    <mxGeometry x="-77.25" y="31" width="67.5" height="135" as="geometry"/>
                </mxCell>
                <mxCell id="23" value="" style="edgeStyle=none;html=1;exitX=0.5;exitY=1;exitDx=0;exitDy=0;strokeColor=#000000;strokeWidth=2;dashed=1;dashPattern=1 1;endArrow=none;" edge="1" parent="1" source="2" target="14">
                    <mxGeometry relative="1" as="geometry">
                        <mxPoint x="121" y="1155" as="targetPoint"/>
                        <mxPoint x="120.5" y="164" as="sourcePoint"/>
                    </mxGeometry>
                </mxCell>
                <mxCell id="30" style="edgeStyle=none;html=1;exitX=0.5;exitY=0;exitDx=0;exitDy=0;entryX=0.5;entryY=0;entryDx=0;entryDy=0;strokeColor=#000000;strokeWidth=2;" edge="1" parent="1" source="14" target="19">
                    <mxGeometry relative="1" as="geometry"/>
                </mxCell>
                <mxCell id="31" style="edgeStyle=none;html=1;exitX=0.5;exitY=1;exitDx=0;exitDy=0;entryX=0.5;entryY=0;entryDx=0;entryDy=0;strokeColor=#000000;strokeWidth=2;" edge="1" parent="1" source="14" target="20">
                    <mxGeometry relative="1" as="geometry"/>
                </mxCell>
                <mxCell id="14" value="" style="rounded=0;whiteSpace=wrap;html=1;strokeColor=#000000;strokeWidth=2;fillColor=default;" vertex="1" parent="1">
                    <mxGeometry x="108" y="254" width="25" height="60" as="geometry"/>
                </mxCell>
                <mxCell id="24" value="" style="edgeStyle=none;html=1;exitX=0.5;exitY=1;exitDx=0;exitDy=0;dashed=1;dashPattern=1 1;strokeColor=#000000;strokeWidth=2;endArrow=none;" edge="1" parent="1" source="3" target="19">
                    <mxGeometry relative="1" as="geometry">
                        <mxPoint x="293.66666666666674" y="1153.1065622965498" as="targetPoint"/>
                        <mxPoint x="294.5" y="166" as="sourcePoint"/>
                    </mxGeometry>
                </mxCell>
                <mxCell id="19" value="" style="rounded=0;whiteSpace=wrap;html=1;strokeColor=#000000;strokeWidth=2;fillColor=default;" vertex="1" parent="1">
                    <mxGeometry x="282" y="254" width="25" height="60" as="geometry"/>
                </mxCell>
                <mxCell id="26" value="" style="edgeStyle=none;html=1;exitX=0.5;exitY=1;exitDx=0;exitDy=0;dashed=1;dashPattern=1 1;strokeColor=#000000;strokeWidth=2;endArrow=none;" edge="1" parent="1" source="4" target="20">
                    <mxGeometry relative="1" as="geometry">
                        <mxPoint x="467" y="1137.6744333902998" as="targetPoint"/>
                        <mxPoint x="468.5" y="164" as="sourcePoint"/>
                    </mxGeometry>
                </mxCell>
                <mxCell id="32" style="edgeStyle=none;html=1;exitX=0.5;exitY=1;exitDx=0;exitDy=0;entryX=0.5;entryY=0;entryDx=0;entryDy=0;strokeColor=#000000;strokeWidth=2;" edge="1" parent="1" source="20" target="21">
                    <mxGeometry relative="1" as="geometry"/>
                </mxCell>
                <mxCell id="20" value="" style="rounded=0;whiteSpace=wrap;html=1;strokeColor=#000000;strokeWidth=2;fillColor=default;" vertex="1" parent="1">
                    <mxGeometry x="456" y="316" width="25" height="60" as="geometry"/>
                </mxCell>
                <mxCell id="27" value="" style="edgeStyle=none;html=1;exitX=0.5;exitY=1;exitDx=0;exitDy=0;dashed=1;dashPattern=1 1;strokeColor=#000000;strokeWidth=2;endArrow=none;" edge="1" parent="1" source="5" target="21">
                    <mxGeometry relative="1" as="geometry">
                        <mxPoint x="649.1199035644531" y="1139.2179107666018" as="targetPoint"/>
                        <mxPoint x="643.5" y="164" as="sourcePoint"/>
                    </mxGeometry>
                </mxCell>
                <mxCell id="33" style="edgeStyle=none;html=1;exitX=0.5;exitY=0;exitDx=0;exitDy=0;strokeColor=#000000;strokeWidth=2;" edge="1" parent="1" source="21">
                    <mxGeometry relative="1" as="geometry">
                        <mxPoint x="826.4941711425781" y="376" as="targetPoint"/>
                    </mxGeometry>
                </mxCell>
                <mxCell id="37" style="html=1;exitX=1;exitY=1;exitDx=0;exitDy=0;strokeColor=#000000;strokeWidth=2;elbow=vertical;" edge="1" parent="1" source="21">
                    <mxGeometry relative="1" as="geometry">
                        <mxPoint x="656.3333333333335" y="522.5409571329753" as="targetPoint"/>
                        <Array as="points">
                            <mxPoint x="715" y="436"/>
                            <mxPoint x="715" y="523"/>
                        </Array>
                    </mxGeometry>
                </mxCell>
                <mxCell id="21" value="" style="rounded=0;whiteSpace=wrap;html=1;strokeColor=#000000;strokeWidth=2;fillColor=default;" vertex="1" parent="1">
                    <mxGeometry x="631" y="376" width="25" height="60" as="geometry"/>
                </mxCell>
                <mxCell id="29" value="" style="edgeStyle=none;html=1;exitX=0.5;exitY=1;exitDx=0;exitDy=0;dashed=1;dashPattern=1 1;strokeColor=#000000;strokeWidth=2;endArrow=none;" edge="1" parent="1" source="6" target="22">
                    <mxGeometry relative="1" as="geometry">
                        <mxPoint x="831.2185974121094" y="1136.131362915039" as="targetPoint"/>
                        <mxPoint x="822.5" y="164" as="sourcePoint"/>
                    </mxGeometry>
                </mxCell>
                <mxCell id="22" value="" style="rounded=0;whiteSpace=wrap;html=1;strokeColor=#000000;strokeWidth=2;fillColor=default;" vertex="1" parent="1">
                    <mxGeometry x="814" y="700" width="25" height="60" as="geometry"/>
                </mxCell>
                <mxCell id="34" value="" style="endArrow=classic;html=1;strokeColor=#000000;strokeWidth=2;entryX=0;entryY=1;entryDx=0;entryDy=0;" edge="1" parent="1" target="21">
                    <mxGeometry width="50" height="50" relative="1" as="geometry">
                        <mxPoint x="294" y="436" as="sourcePoint"/>
                        <mxPoint x="577" y="754" as="targetPoint"/>
                    </mxGeometry>
                </mxCell>
                <mxCell id="35" value="" style="endArrow=classic;html=1;strokeColor=#000000;strokeWidth=2;entryX=0;entryY=0;entryDx=0;entryDy=0;" edge="1" parent="1" target="22">
                    <mxGeometry width="50" height="50" relative="1" as="geometry">
                        <mxPoint x="296" y="700" as="sourcePoint"/>
                        <mxPoint x="394" y="672" as="targetPoint"/>
                    </mxGeometry>
                </mxCell>
                <mxCell id="36" value="" style="endArrow=classic;html=1;strokeColor=#000000;strokeWidth=2;" edge="1" parent="1">
                    <mxGeometry width="50" height="50" relative="1" as="geometry">
                        <mxPoint x="648" y="556" as="sourcePoint"/>
                        <mxPoint x="289" y="556" as="targetPoint"/>
                    </mxGeometry>
                </mxCell>
                <mxCell id="38" style="html=1;exitX=1;exitY=1;exitDx=0;exitDy=0;strokeColor=#000000;strokeWidth=2;elbow=vertical;entryX=1;entryY=0;entryDx=0;entryDy=0;" edge="1" parent="1" target="22">
                    <mxGeometry relative="1" as="geometry">
                        <mxPoint x="823" y="572" as="targetPoint"/>
                        <mxPoint x="823" y="439.0000000000001" as="sourcePoint"/>
                        <Array as="points">
                            <mxPoint x="938" y="439"/>
                            <mxPoint x="938" y="700"/>
                        </Array>
                    </mxGeometry>
                </mxCell>
                <mxCell id="39" value="" style="endArrow=classic;html=1;strokeColor=#000000;strokeWidth=2;elbow=vertical;" edge="1" parent="1">
                    <mxGeometry width="50" height="50" relative="1" as="geometry">
                        <mxPoint x="126" y="887" as="sourcePoint"/>
                        <mxPoint x="-27" y="887" as="targetPoint"/>
                    </mxGeometry>
                </mxCell>
                <mxCell id="40" value="" style="endArrow=classic;html=1;strokeColor=#000000;strokeWidth=2;elbow=vertical;" edge="1" parent="1">
                    <mxGeometry width="50" height="50" relative="1" as="geometry">
                        <mxPoint x="825" y="838" as="sourcePoint"/>
                        <mxPoint x="647" y="838" as="targetPoint"/>
                    </mxGeometry>
                </mxCell>
                <mxCell id="41" value="" style="endArrow=classic;html=1;strokeColor=#000000;strokeWidth=2;elbow=vertical;startArrow=none;" edge="1" parent="1">
                    <mxGeometry width="50" height="50" relative="1" as="geometry">
                        <mxPoint x="817" y="265" as="sourcePoint"/>
                        <mxPoint x="645" y="265" as="targetPoint"/>
                    </mxGeometry>
                </mxCell>
                <mxCell id="42" value="" style="endArrow=classic;html=1;strokeColor=#000000;strokeWidth=2;dashed=1;dashPattern=1 1;" edge="1" parent="1">
                    <mxGeometry width="50" height="50" relative="1" as="geometry">
                        <mxPoint x="471" y="613" as="sourcePoint"/>
                        <mxPoint x="112" y="613" as="targetPoint"/>
                    </mxGeometry>
                </mxCell>
                <mxCell id="43" value="" style="endArrow=classic;html=1;strokeColor=#000000;strokeWidth=2;dashed=1;dashPattern=1 1;" edge="1" parent="1">
                    <mxGeometry width="50" height="50" relative="1" as="geometry">
                        <mxPoint x="649" y="786" as="sourcePoint"/>
                        <mxPoint x="115" y="786" as="targetPoint"/>
                    </mxGeometry>
                </mxCell>
                <mxCell id="44" value="" style="endArrow=classic;html=1;strokeColor=#000000;strokeWidth=2;elbow=vertical;entryX=0;entryY=0.5;entryDx=0;entryDy=0;exitX=1.033;exitY=0.095;exitDx=0;exitDy=0;exitPerimeter=0;" edge="1" parent="1" source="7" target="14">
                    <mxGeometry width="50" height="50" relative="1" as="geometry">
                        <mxPoint x="4" y="339" as="sourcePoint"/>
                        <mxPoint x="54" y="289" as="targetPoint"/>
                    </mxGeometry>
                </mxCell>
                <mxCell id="45" value="Loing to Page" style="text;html=1;strokeColor=none;fillColor=none;align=center;verticalAlign=middle;whiteSpace=wrap;rounded=0;strokeWidth=2;fontSize=20;fontColor=#000000;" vertex="1" parent="1">
                    <mxGeometry x="13" y="238" width="60" height="30" as="geometry"/>
                </mxCell>
                <mxCell id="47" value="" style="edgeStyle=none;html=1;exitX=0.5;exitY=1;exitDx=0;exitDy=0;dashed=1;dashPattern=1 1;strokeColor=#000000;strokeWidth=2;startArrow=none;endArrow=none;" edge="1" parent="1" source="19" target="46">
                    <mxGeometry relative="1" as="geometry">
                        <mxPoint x="293.66666666666674" y="1153.1065622965498" as="targetPoint"/>
                        <mxPoint x="294.5" y="314" as="sourcePoint"/>
                    </mxGeometry>
                </mxCell>
                <mxCell id="46" value="Check Login Details" style="text;html=1;strokeColor=none;fillColor=none;align=center;verticalAlign=middle;whiteSpace=wrap;rounded=0;strokeWidth=2;fontSize=20;fontColor=#000000;" vertex="1" parent="1">
                    <mxGeometry x="261" y="338" width="60" height="30" as="geometry"/>
                </mxCell>
                <mxCell id="48" value="Forgot Password" style="text;html=1;strokeColor=none;fillColor=none;align=center;verticalAlign=middle;whiteSpace=wrap;rounded=0;strokeWidth=2;fontSize=20;fontColor=#000000;" vertex="1" parent="1">
                    <mxGeometry x="174" y="215" width="60" height="30" as="geometry"/>
                </mxCell>
                <mxCell id="50" value="" style="endArrow=none;html=1;strokeColor=#000000;strokeWidth=2;elbow=vertical;" edge="1" parent="1">
                    <mxGeometry width="50" height="50" relative="1" as="geometry">
                        <mxPoint x="823" y="265" as="sourcePoint"/>
                        <mxPoint x="781" y="264.41666666666663" as="targetPoint"/>
                    </mxGeometry>
                </mxCell>
                <mxCell id="52" value="Create Session in and store in Database" style="text;html=1;strokeColor=none;fillColor=none;align=center;verticalAlign=middle;whiteSpace=wrap;rounded=0;strokeWidth=2;fontSize=20;fontColor=#000000;" vertex="1" parent="1">
                    <mxGeometry x="710" y="476" width="148" height="30" as="geometry"/>
                </mxCell>
                <mxCell id="53" value="Allow user to Access the internet pages on base of user Token and Session" style="text;html=1;strokeColor=none;fillColor=none;align=center;verticalAlign=middle;whiteSpace=wrap;rounded=0;strokeWidth=2;fontSize=20;fontColor=#000000;" vertex="1" parent="1">
                    <mxGeometry x="946" y="565" width="194" height="30" as="geometry"/>
                </mxCell>
                <mxCell id="55" value="Vaild Login Details" style="text;html=1;strokeColor=none;fillColor=none;align=center;verticalAlign=middle;whiteSpace=wrap;rounded=0;strokeWidth=2;fontSize=20;fontColor=#000000;" vertex="1" parent="1">
                    <mxGeometry x="526" y="346" width="60" height="30" as="geometry"/>
                </mxCell>
                <mxCell id="56" value="Provide Authorization for acces" style="text;html=1;strokeColor=none;fillColor=none;align=center;verticalAlign=middle;whiteSpace=wrap;rounded=0;strokeWidth=2;fontSize=20;fontColor=#000000;" vertex="1" parent="1">
                    <mxGeometry x="652" y="346" width="162" height="30" as="geometry"/>
                </mxCell>
                <mxCell id="58" value="Send email to user to reset password" style="text;html=1;strokeColor=none;fillColor=none;align=center;verticalAlign=middle;whiteSpace=wrap;rounded=0;strokeWidth=2;fontSize=20;fontColor=#000000;" vertex="1" parent="1">
                    <mxGeometry x="272.5" y="522" width="392" height="30" as="geometry"/>
                </mxCell>
                <mxCell id="59" value="Check security question and Answer" style="text;html=1;strokeColor=none;fillColor=none;align=center;verticalAlign=middle;whiteSpace=wrap;rounded=0;strokeWidth=2;fontSize=20;fontColor=#000000;" vertex="1" parent="1">
                    <mxGeometry x="296" y="406" width="163" height="30" as="geometry"/>
                </mxCell>
                <mxCell id="60" value="Invalid Login Details" style="text;html=1;strokeColor=none;fillColor=none;align=center;verticalAlign=middle;whiteSpace=wrap;rounded=0;strokeWidth=2;fontSize=20;fontColor=#000000;" vertex="1" parent="1">
                    <mxGeometry x="193" y="623" width="207" height="30" as="geometry"/>
                </mxCell>
                <mxCell id="61" value="Logout From Application" style="text;html=1;strokeColor=none;fillColor=none;align=center;verticalAlign=middle;whiteSpace=wrap;rounded=0;strokeWidth=2;fontSize=20;fontColor=#000000;" vertex="1" parent="1">
                    <mxGeometry x="222" y="792" width="280" height="30" as="geometry"/>
                </mxCell>
                <mxCell id="62" value="Allow User to Acess the Pages" style="text;html=1;strokeColor=none;fillColor=none;align=center;verticalAlign=middle;whiteSpace=wrap;rounded=0;strokeWidth=2;fontSize=20;fontColor=#000000;" vertex="1" parent="1">
                    <mxGeometry x="440" y="711" width="320" height="30" as="geometry"/>
                </mxCell>
                <mxCell id="63" value="Login Successfully" style="text;html=1;strokeColor=none;fillColor=none;align=center;verticalAlign=middle;whiteSpace=wrap;rounded=0;strokeWidth=2;fontSize=20;fontColor=#000000;" vertex="1" parent="1">
                    <mxGeometry x="9" y="905" width="60" height="30" as="geometry"/>
                </mxCell>
                <mxCell id="64" value="Destroy Session and Tokens&amp;nbsp; from Database" style="text;html=1;strokeColor=none;fillColor=none;align=center;verticalAlign=middle;whiteSpace=wrap;rounded=0;strokeWidth=2;fontSize=20;fontColor=#000000;" vertex="1" parent="1">
                    <mxGeometry x="656" y="869" width="161" height="30" as="geometry"/>
                </mxCell>
                <mxCell id="67" value="Check Authencticity for access" style="text;html=1;strokeColor=none;fillColor=none;align=center;verticalAlign=middle;whiteSpace=wrap;rounded=0;strokeWidth=2;fontSize=20;fontColor=#000000;" vertex="1" parent="1">
                    <mxGeometry x="703" y="208" width="60" height="30" as="geometry"/>
                </mxCell>
            </root>
        </mxGraphModel>
    </diagram>
</mxfile>